<?xml version="1.0" encoding="utf-8"?>
<!-- Generator: Adobe Illustrator 17.0.0, SVG Export Plug-In . SVG Version: 6.00 Build 0)  -->
<!DOCTYPE svg PUBLIC "-//W3C//DTD SVG 1.1//EN" "http://www.w3.org/Graphics/SVG/1.1/DTD/svg11.dtd">
<svg version="1.1" id="Layer_1" xmlns="http://www.w3.org/2000/svg" xmlns:xlink="http://www.w3.org/1999/xlink" x="0px" y="0px"
	 width="1090px" height="236px" viewBox="-1162.318 -249.5 1090 236" enable-background="new -1162.318 -249.5 1090 236"
	 xml:space="preserve">
<path fill="#FFFFFF" d="M302.461,321.423c0-65.333,0.033-130.667-0.095-196c-0.007-3.395,0.629-4.115,4.081-4.111
	c107.333,0.119,214.667,0.117,322,0.004c3.394-0.004,4.114,0.628,4.111,4.08c-0.114,130.667-0.113,261.333-0.004,392
	c0.003,3.394-0.627,4.115-4.079,4.111c-107.333-0.119-214.667-0.117-322-0.004c-3.394,0.004-4.119-0.628-4.112-4.08
	C302.496,452.09,302.461,386.757,302.461,321.423z"/>
<path fill="#FFCD25" d="M134.255,73.025c20.622-0.467,39.848,4.656,57.603,14.987c31.241,18.178,49.922,45.392,57.004,80.672
	c1.576,7.85,1.664,15.86,1.623,23.863c-0.141,27.301-0.659,54.611-0.095,81.899c0.313,15.152-10.315,27.759-20.051,31.77
	c-14.301,5.89-29.347,3.239-39.28-7.767c-3.524-3.904-6.02-3.646-10.303-1.757c-16.635,7.336-34.116,10.592-52.338,9.431
	c3.474-2.172,4.234-5.354,4.194-9.306c-0.171-16.789-0.082-33.581-0.063-50.372c0.003-2.485-0.194-4.995,0.531-7.425
	c1.857-3.307,5.315-3.056,8.314-3.467c22.444-3.081,40.078-23.49,39.384-47.782c-0.664-23.214-19.972-43.274-42.946-44.614
	c-2.025-0.118-4.525,0.454-5.336-2.47c0.036-20.388-0.015-40.767,0.039-61.146C132.54,77.245,132.344,74.842,134.255,73.025z"/>
<path fill="#F16022" d="M134.255,73.025c-0.012,20.994-0.018,41.989-0.043,62.983c-0.002,1.968,0.395,4.037-1.113,5.722
	c-1.299,1.72-3.3,1.335-5.047,1.63c-19.783,3.332-35.336,17.542-39.092,37.27c-4.762,25.013,10.668,46.993,32.666,53.82
	c4.11,1.276,8.557,1.266,12.438,3.361c0.038,21.384-0.092,42.77,0.235,64.149c0.081,5.29-3.386,3.577-5.884,4.161
	c-54.426-2.255-101.376-43.846-109.11-100.508C11.336,147.23,46.948,92.234,105.132,76.488
	C114.563,73.936,124.32,72.256,134.255,73.025z"/>
<path fill="#FFCD26" d="M69.2,11.97c9.821,7.957,20.882,10.451,32.151,11.5c17.2,1.601,27.588,13.986,31.211,29.681
	c2.969,12.86,3.967,10.342-8.899,11.517c-6.426,0.587-12.883,1.864-19.374,0.7c-18.884-3.386-31.27-16.419-34.125-35.878
	C69.349,23.932,68.456,18.369,69.2,11.97z"/>
<path fill="#FDCE2D" d="M239.499,406.707c0.947,2.558-2.263,6.881,3.14,8.302c1.03,0.271,0.687,1.742,0.01,2.566
	c-0.824,1.003-9.308,1.105-10.055,0.096c-0.594-0.801-1.08-1.99-0.032-2.647c5.86-3.679,1.824-9.137,2.461-13.723
	c0.188-1.356-1.645-2.375-2.875-2.225c-2.225,0.27-5.404,0.683-5.654,3.094c-0.446,4.289-3.645,9.275,1.875,12.855
	c1.152,0.747,1.12,2.437-0.184,2.835c-3.028,0.926-6.288,0.827-9.315,0.147c-1.346-0.302-1.967-2.088-0.138-3.459
	c2.402-1.8,3.618-12.089,1.76-14.206c-1.3-1.481-3.03-1.296-4.625-0.772c-2.315,0.76-4.669,2.231-4.272,4.811
	c0.557,3.615-2.789,8.299,2.669,10.816c0.816,0.376,0.503,1.832-0.306,2.615c-0.837,0.811-8.938,0.647-9.689-0.206
	c-1.006-1.143-0.699-2.395,0.536-2.849c4.479-1.645,2.239-5.41,2.23-8.022c-0.009-2.544,2.513-6.37-2.505-7.849
	c-1.833-0.54-1.299-2.393,0.621-3.126c0.3-0.115,0.654-0.104,0.985-0.115c4.265-0.136,8.988-0.701,12.686-0.249
	c4.836,0.591,8.916,0.901,13.703-0.387c3.487-0.938,6.764,1.405,6.963,5.873C239.567,402.71,239.499,404.541,239.499,406.707z"/>
<path fill="#F06223" d="M71.397,416.604c1.002,3.186-2.235,7.568,3.57,8.432c0.259,0.039,0.446,1.475,0.425,2.254
	c-0.031,1.103-0.979,1.175-1.807,1.176c-2.491,0.003-4.983-0.048-7.475-0.057c-1.127-0.004-1.948-0.338-1.962-1.638
	c-0.011-0.986-0.126-2.201,1.247-2.249c2.816-0.098,1.959-2.166,1.981-3.616c0.078-5.149,0.151-10.303-0.021-15.447
	c-0.082-2.463,1.485-5.755-2.707-6.764c-0.67-0.161-0.691-1.403-0.325-2.235c0.419-0.953,1.306-0.986,2.1-0.884
	c4.174,0.536,8.235,0.37,12.441-0.395c4.874-0.886,8.897,1.628,10.909,6.041c2.105,4.617,1.88,9.509-1.57,13.604
	c-3.229,3.834-7.611,4.439-12.278,3.41C74.516,417.926,73.185,417.261,71.397,416.604z"/>
<path fill="#FDCE30" d="M174.301,418.279c-3.274-2.387-7.071,0.434-10.965,0.273c-6.95-0.289-11.248-5.025-10.974-12.476
	c0.245-6.662,5.622-12.275,11.925-11.141c4.062,0.731,7.916,0.95,11.933,0.64c1.081-0.083,2.518-0.27,2.993,1.157
	c0.553,1.661-0.367,2.359-1.964,2.679c-1.148,0.23-1.563,1.425-1.3,2.371c1.24,4.469-2.403,9.989,2.909,13.617
	c0.319,0.218,0.368,1.334,0.114,1.799C178.055,418.884,176.385,418.216,174.301,418.279z"/>
<path fill="#F06424" d="M144.309,407.2c0.528,2.799-1.476,6.526,2.846,8.293c0.574,0.235,0.498,1.929-0.211,2.197
	c-3.184,1.206-6.537,0.75-9.796,0.34c-1.128-0.142-1.165-2.216-0.655-2.452c5.262-2.437,2.393-7.039,2.907-10.658
	c0.338-2.378,0.691-5.405-2.986-5.667c-3.426-0.244-7.117,1.276-7.224,4.575c-0.117,3.616-3.314,8.563,2.596,11.215
	c1.242,0.557,1.351,2.806-0.953,3.186c-1.46,0.241-3.007,0.223-4.482,0.045c-1.688-0.204-3.962,1.047-4.945-1.057
	c-1.064-2.278,1.459-2.248,2.543-3.253c1.782-1.653,0.266-13.024-1.793-14.802c-0.723-0.625-1.026-1.285-0.898-2.135
	c0.186-1.232,1.216-1.784,2.188-1.484c4.847,1.498,9.466,0.018,14.228-0.537c3.723-0.434,6.168,2.198,6.595,6.061
	C144.489,403.041,144.309,405.059,144.309,407.2z"/>
<path fill="#F06424" d="M108.972,408.321c-1.996,0-4.007-0.151-5.981,0.057c-1.149,0.121-2.943-0.913-3.372,0.949
	c-0.316,1.368,0.875,2.452,1.866,3.336c3.57,3.182,7.345,2.788,10.848,0.082c1.611-1.244,3.471-2.517,4.697-0.916
	c1.121,1.462-1.079,2.883-2.259,3.92c-4.926,4.327-13.419,3.87-17.532-0.835c-3.956-4.526-3.684-12.893,0.548-16.853
	c4.586-4.291,12.873-4.22,17.256,0.151c0.353,0.352,0.747,0.684,1.018,1.094c1.595,2.419,3.085,5.305,2.106,7.919
	c-0.978,2.609-4.097,0.602-6.21,1.085c-0.948,0.217-1.988,0.037-2.985,0.037C108.972,408.339,108.972,408.33,108.972,408.321z"/>
<path fill="#FCCE32" d="M256.697,418.64c-2.55,0.52-5.207-2.149-8.288-0.502c-0.917,0.491-1.829-0.709-1.77-1.82
	c0.099-1.878-1.031-4.109,1.178-5.473c1.271-0.785,2.14,0.144,2.959,1.037c2.158,2.354,4.852,3.491,8.029,3.117
	c1.519-0.179,3.028-0.867,3.115-2.672c0.073-1.525-1.089-2.401-2.461-2.728c-2.09-0.497-4.24-0.747-6.328-1.251
	c-3.609-0.87-6.663-2.366-6.501-6.843c0.168-4.641,3.113-6.094,7.22-6.571c3.335-0.387,6.355,1.626,9.759,0.846
	c1.307-0.299,1.718,1.323,1.733,2.536c0.019,1.462,0.34,3.138-1.308,3.978c-1.101,0.561-2.378,0.416-3.179-0.598
	c-1.512-1.912-3.191-3.373-5.813-3.237c-1.768,0.091-3.371,0.519-3.871,2.47c-0.643,2.51,1.592,2.602,2.991,3.081
	c1.546,0.529,3.254,0.57,4.879,0.887c4.165,0.81,7.894,2.074,7.251,7.524C265.794,416.621,262.627,418.748,256.697,418.64z"/>
<path fill="#EF6224" d="M49.524,418.612c-7.19-0.042-12.141-4.825-12.131-11.72c0.01-6.943,5.383-12.16,12.397-12.036
	c7.194,0.127,12.283,5.284,12.192,12.357C61.896,413.891,56.691,418.654,49.524,418.612z"/>
<path fill="#FDCF33" d="M189.751,418.276c-1.16,0-2.325,0.067-3.48-0.014c-2.3-0.163-2.525-2.283-1.435-3.059
	c5.484-3.9,1.464-9.379,2.653-13.933c0.102-0.391-0.148-1.087-0.47-1.336c-1.181-0.912-3.643-1.116-2.42-3.389
	c1.068-1.985,3.564-1.365,4.938-0.861c2.809,1.03,5.165,0.333,7.715-0.482c1.088-0.347,2.7-1.344,3.105,0.889
	c0.254,1.398-0.065,2.389-1.691,3.058c-7.241,2.978-8.79,9.549-3.889,15.827c1.23,1.575,0.937,2.858-1.065,3.267
	c-1.271,0.26-2.638,0.049-3.961,0.049C189.751,418.287,189.751,418.282,189.751,418.276z"/>
<path fill="#FFFFFF" d="M461.993,357.317c-26.474-0.914-46.109-22.252-47.186-46.131c-1.227-27.19,21.411-49.71,46.222-49.949
	c28.974-0.65,49.962,23.534,49.089,50.133c-0.713,21.725-19.196,42.508-41.191,45.15
	C466.616,356.797,464.304,357.051,461.993,357.317z"/>
<path fill="#FAF8F3" d="M78.931,414.832c-4.265-0.066-7.568-3.719-7.45-8.243c0.108-4.181,3.513-7.773,7.466-7.878
	c3.862-0.102,7.545,4.046,7.426,8.364C86.252,411.454,82.952,414.894,78.931,414.832z"/>
<path fill="#FDFDF9" d="M171.524,406.763c-0.024,4.758-2.722,7.841-6.943,7.932c-4.387,0.096-7.874-3.435-7.716-7.81
	c0.169-4.667,3.533-8.213,7.651-8.066C168.679,398.969,171.547,402.22,171.524,406.763z"/>
<path fill="#FAF3EA" d="M106.97,404.502c-1.268,0-1.967,0.134-2.591-0.026c-1.549-0.397-4.163,1.3-4.467-1.334
	c-0.235-2.045,1.753-3.386,3.785-4.093c3.159-1.1,5.915-0.148,8.362,1.774c0.854,0.67,1.887,2.253,0.979,3.012
	C111.139,405.421,108.591,403.985,106.97,404.502z"/>
<path fill="#FAF8F4" d="M57.412,406.769c-0.005,4.39-3.493,8.016-7.709,8.014c-4.381-0.002-7.698-3.473-7.676-8.031
	c0.021-4.323,3.76-8.322,7.668-8.2C53.894,398.682,57.417,402.433,57.412,406.769z"/>
<g>
	<path fill="#F16022" d="M-904.356-116.356c0.053-6.091,1.109-11.636,3.169-16.639c2.058-5.002,4.934-9.296,8.624-12.888
		c3.691-3.59,8.076-6.351,13.157-8.283c5.082-1.931,10.671-2.897,16.768-2.897c6.15,0,11.78,0.966,16.887,2.897
		c5.107,1.933,9.479,4.669,13.118,8.208c3.636,3.541,6.47,7.813,8.504,12.815c2.032,5.002,3.048,10.548,3.048,16.639
		c0,5.992-1.016,11.502-3.048,16.528c-2.034,5.026-4.868,9.347-8.504,12.963c-3.638,3.614-8.011,6.426-13.118,8.431
		c-5.108,2.005-10.737,3.008-16.887,3.008c-6.258,0-11.927-0.993-17.008-2.972c-5.082-1.981-9.441-4.767-13.077-8.356
		c-3.638-3.592-6.472-7.886-8.504-12.89C-903.26-104.791-904.303-110.313-904.356-116.356z M-888.551-116.356
		c0,4.408,0.682,8.395,2.046,11.96c1.363,3.565,3.235,6.6,5.615,9.1c2.379,2.502,5.134,4.432,8.264,5.794
		c3.129,1.363,6.458,2.044,9.988,2.044c3.69,0,7.126-0.668,10.309-2.005c3.181-1.339,5.95-3.257,8.303-5.757
		c2.353-2.502,4.198-5.534,5.535-9.1c1.337-3.567,2.007-7.578,2.007-12.035c0-4.653-0.67-8.79-2.007-12.406
		c-1.337-3.614-3.168-6.634-5.495-9.061c-2.327-2.427-5.095-4.26-8.303-5.498c-3.21-1.238-6.66-1.858-10.349-1.858
		c-3.53,0-6.859,0.62-9.988,1.858c-3.13,1.238-5.885,3.071-8.264,5.498c-2.38,2.427-4.252,5.447-5.615,9.061
		C-887.87-125.145-888.551-121.009-888.551-116.356z"/>
	<path fill="#F16022" d="M-808.245-154.834h26.475v6.389c3.53-2.526,7.381-4.532,11.553-6.016c4.172-1.487,8.477-2.228,12.916-2.228
		c5.455,0,10.456,0.94,15.003,2.822c4.546,1.882,8.464,4.532,11.753,7.949c3.289,3.415,5.842,7.515,7.661,12.292
		c1.818,4.781,2.728,10.066,2.728,15.859c0,6.193-1.016,11.836-3.049,16.937s-4.854,9.47-8.464,13.111
		c-3.61,3.64-7.902,6.476-12.877,8.506s-10.429,3.045-16.366,3.045c-4.226,0-7.982-0.407-11.272-1.226
		c-3.289-0.816-6.432-1.868-9.427-3.156v24.884h12.997v12.776h-39.471v-12.776h11.392v-86.391h-11.553V-154.834z M-761.232-144.509
		c-3.851,0-7.555,0.719-11.111,2.155c-3.558,1.436-6.646,3.417-9.267,5.941v41.673c1.765,1.683,4.293,3.195,7.581,4.532
		c3.29,1.337,7.394,2.005,12.315,2.005c3.421,0,6.711-0.618,9.867-1.858c3.155-1.238,5.937-3.083,8.344-5.534
		c2.407-2.451,4.332-5.484,5.776-9.1c1.444-3.614,2.166-7.799,2.166-12.553c0-4.357-0.682-8.22-2.045-11.587
		c-1.364-3.369-3.21-6.215-5.536-8.542c-2.327-2.328-5.041-4.098-8.142-5.311C-754.386-143.902-757.703-144.509-761.232-144.509z"/>
	<path fill="#F16022" d="M-690.633-114.573c0,2.18,0.173,4.173,0.522,5.98c0.347,1.809,0.843,3.529,1.485,5.164
		c1.977,4.951,5.146,8.678,9.507,11.178c4.358,2.502,9.292,3.752,14.801,3.752c4.333,0,8.544-0.557,12.636-1.671
		c4.091-1.114,8.383-2.86,12.877-5.237l6.016,9.434c-5.455,3.466-10.938,6.043-16.446,7.726c-5.51,1.681-11.233,2.524-17.169,2.524
		c-5.615,0-10.818-0.867-15.604-2.599c-4.787-1.732-8.905-4.309-12.355-7.726c-3.45-3.415-6.151-7.675-8.103-12.776
		c-1.953-5.099-2.928-11.042-2.928-17.828c0-5.496,0.828-10.684,2.488-15.562c1.657-4.876,4.131-9.136,7.42-12.776
		c3.29-3.64,7.368-6.525,12.234-8.654s10.537-3.195,17.008-3.195c6.258,0,11.486,0.879,15.685,2.637
		c4.197,1.758,7.621,4.086,10.268,6.983c2.648,2.897,4.653,6.203,6.017,9.916c1.363,3.715,2.312,7.503,2.848,11.366
		c0.266,1.882,0.441,3.788,0.521,5.719c0.081,1.933,0.121,3.814,0.121,5.646H-690.633z M-667.286-145.251
		c-3.477,0-6.513,0.458-9.106,1.373c-2.595,0.918-4.801,2.228-6.619,3.938c-1.819,1.708-3.277,3.8-4.373,6.276
		c-1.097,2.477-1.912,5.251-2.447,8.32h43.082c-0.215-2.87-0.71-5.52-1.484-7.949c-0.776-2.425-1.966-4.53-3.57-6.312
		c-1.604-1.785-3.664-3.17-6.177-4.161C-660.495-144.756-663.596-145.251-667.286-145.251z"/>
	<path fill="#F16022" d="M-555.772-90.653h11.714v-35.136c0-5.893-1.619-10.362-4.854-13.408c-3.237-3.045-7.876-4.568-13.92-4.568
		c-3.477,0-6.98,0.768-10.509,2.303c-3.53,1.536-6.873,3.442-10.028,5.719v45.091h11.713v12.776h-38.829v-12.776h11.553v-51.405
		h-11.553v-12.776h26.474v9.063h0.161c1.764-1.436,3.65-2.798,5.656-4.086c2.005-1.286,4.104-2.4,6.298-3.342
		c2.192-0.94,4.479-1.683,6.859-2.228c2.379-0.545,4.88-0.816,7.501-0.816c4.438,0,8.45,0.569,12.034,1.708
		c3.583,1.14,6.631,2.872,9.146,5.2c2.513,2.328,4.453,5.311,5.816,8.95c1.364,3.64,2.046,7.937,2.046,12.89v36.844h11.553v12.776
		h-38.83V-90.653z"/>
	<path fill="#FFCD25" d="M-452.038-85.008c-3.156,2.723-6.646,4.953-10.469,6.685c-3.825,1.732-8.171,2.599-13.038,2.599
		c-4.065,0-7.795-0.594-11.191-1.783c-3.397-1.187-6.325-2.81-8.785-4.866c-2.461-2.054-4.373-4.442-5.737-7.167
		c-1.363-2.723-2.045-5.619-2.045-8.69c0-3.27,0.521-6.166,1.564-8.692s2.433-4.716,4.172-6.573
		c1.737-1.858,3.771-3.417,6.097-4.679c2.327-1.264,4.759-2.277,7.301-3.047c2.539-0.766,5.134-1.311,7.782-1.633
		c2.648-0.322,5.175-0.484,7.581-0.484c3.851,0,7.086,0.111,9.707,0.334c2.62,0.223,5.001,0.533,7.14,0.93l0.081-6.314
		c0-2.725-0.429-5.089-1.284-7.094c-0.856-2.005-2.059-3.665-3.61-4.977c-1.552-1.313-3.409-2.291-5.576-2.935
		c-2.167-0.642-4.586-0.964-7.26-0.964c-2.515,0-4.922,0.16-7.221,0.482c-2.3,0.322-4.453,0.743-6.458,1.262
		c-2.005,0.521-3.851,1.114-5.535,1.783c-1.685,0.671-3.117,1.375-4.293,2.119l-4.894-9.584c1.978-1.189,4.145-2.289,6.499-3.306
		c2.353-1.013,4.826-1.88,7.421-2.599c2.593-0.717,5.241-1.286,7.942-1.708c2.7-0.421,5.362-0.632,7.983-0.632
		c4.813,0,9.145,0.533,12.996,1.596c3.851,1.066,7.112,2.712,9.788,4.941c2.673,2.228,4.733,5.064,6.177,8.504
		c1.443,3.444,2.165,7.566,2.165,12.369l-0.08,38.479h9.226v12.776h-24.149V-85.008z M-472.255-87.311
		c1.978,0,3.957-0.223,5.936-0.668c1.978-0.446,3.851-1.051,5.616-1.819c1.764-0.768,3.396-1.659,4.894-2.676
		c1.496-1.013,2.754-2.066,3.77-3.156l0.08-17.383h-17.328c-2.889,0-5.523,0.298-7.902,0.891c-2.381,0.596-4.44,1.463-6.177,2.601
		c-1.739,1.138-3.089,2.55-4.051,4.234c-0.963,1.683-1.444,3.616-1.444,5.794c0,2.032,0.401,3.802,1.203,5.311
		c0.802,1.511,1.938,2.773,3.409,3.788c1.471,1.017,3.222,1.783,5.255,2.303C-476.962-87.57-474.716-87.311-472.255-87.311z"/>
	<path fill="#FFCD25" d="M-351.274-138.566h-15.244v-4.754c-1.765,0-3.57,0.31-5.415,0.928c-1.845,0.62-3.57,1.56-5.175,2.824
		c-1.605,1.262-3.009,2.872-4.212,4.827c-1.203,1.957-2.073,4.272-2.607,6.946v37.142h14.12v12.776h-41.237v-12.776h11.472
		l0.081-51.405h-11.553v-12.776h26.555v10.623c0.962-1.584,2.045-3.057,3.248-4.42c1.204-1.361,2.54-2.55,4.012-3.565
		c1.471-1.015,3.101-1.807,4.894-2.376c1.791-0.569,3.73-0.855,5.816-0.855c2.78,0,5.402,0,7.862,0c2.46,0,4.92,0.051,7.382,0.148
		V-138.566z"/>
	<path fill="#FFCD25" d="M-334.025-154.834h26.474v8.988h0.161c1.817-1.434,3.73-2.785,5.736-4.047
		c2.005-1.264,4.104-2.364,6.298-3.306c2.193-0.94,4.479-1.683,6.859-2.228c2.379-0.545,4.854-0.816,7.421-0.816
		c5.989,0,11.152,1.027,15.484,3.081c4.332,2.056,7.674,5.263,10.028,9.62c2.032-1.683,4.172-3.306,6.419-4.866
		c2.246-1.56,4.585-2.909,7.019-4.047c2.433-1.138,4.986-2.054,7.662-2.749c2.673-0.693,5.455-1.039,8.343-1.039
		c4.493,0,8.53,0.569,12.115,1.708c3.582,1.14,6.631,2.872,9.145,5.2s4.425,5.311,5.737,8.95c1.31,3.64,1.965,7.937,1.965,12.89
		v36.844h11.553v12.776h-38.829v-12.776h11.713v-35.136c0-5.893-1.604-10.362-4.814-13.408c-3.209-3.045-7.836-4.568-13.879-4.568
		c-3.584,0-7.247,0.792-10.991,2.376c-3.745,1.586-6.953,3.592-9.627,6.018v44.718h11.473v12.776h-38.75v-12.776h11.714v-35.136
		c0-5.893-1.619-10.362-4.854-13.408c-3.237-3.045-7.876-4.568-13.92-4.568c-3.477,0-6.98,0.768-10.509,2.303
		c-3.53,1.536-6.873,3.442-10.028,5.719v45.091h11.713v12.776h-38.829v-12.776h11.553v-51.405h-11.553V-154.834z"/>
	<path fill="#FFCD25" d="M-123.149-139.494c-1.042-1.461-2.393-2.65-4.051-3.567c-1.658-0.916-3.504-1.584-5.535-2.005
		c-2.033-0.419-4.011-0.63-5.936-0.63c-2.14,0-4.105,0.223-5.897,0.668c-1.793,0.446-3.329,1.09-4.613,1.931
		c-1.284,0.843-2.287,1.87-3.009,3.083c-0.722,1.213-1.083,2.563-1.083,4.047c0,2.577,0.843,4.619,2.527,6.13
		c1.684,1.511,4.505,2.909,8.463,4.195l15.966,5.2c6.845,2.131,11.845,5.028,15.003,8.692c3.155,3.665,4.733,8.048,4.733,13.147
		c0,3.417-0.736,6.549-2.206,9.397c-1.472,2.848-3.558,5.273-6.258,7.28c-2.701,2.005-5.951,3.565-9.747,4.679
		c-3.798,1.114-8.023,1.671-12.676,1.671c-6.472,0-11.741-0.966-15.805-2.897c-4.066-1.933-7.194-4.483-9.386-7.651h-8.344V-98.9
		h16.607c0,2.131,0.494,3.95,1.484,5.461c0.99,1.511,2.299,2.737,3.932,3.677c1.631,0.942,3.475,1.635,5.535,2.08
		c2.058,0.446,4.158,0.668,6.298,0.668c2.085,0,4.091-0.235,6.016-0.707c1.925-0.47,3.623-1.163,5.095-2.078
		c1.471-0.918,2.633-2.018,3.49-3.306c0.855-1.288,1.283-2.749,1.283-4.384c0-2.475-0.87-4.58-2.607-6.314
		c-1.739-1.732-4.694-3.292-8.866-4.679l-15.885-5.496c-6.472-2.129-11.272-4.841-14.401-8.135
		c-3.129-3.292-4.693-7.414-4.693-12.367c0-3.27,0.654-6.29,1.965-9.063c1.31-2.773,3.209-5.164,5.696-7.169
		c2.487-2.005,5.522-3.575,9.106-4.716c3.583-1.138,7.674-1.71,12.275-1.71c5.936,0,10.911,0.77,14.922,2.303
		c4.012,1.536,7.622,4.161,10.831,7.874h7.783v12.776h-16.447C-121.584-136.263-122.106-138.033-123.149-139.494z"/>
</g>
<g>
	<path fill="#FFCD25" d="M-1028.215-191.476c13.609-0.308,26.296,3.073,38.013,9.89c20.617,11.996,32.944,29.955,37.618,53.237
		c1.04,5.18,1.098,10.466,1.071,15.748c-0.093,18.016-0.435,36.039-0.063,54.047c0.207,9.999-6.807,18.319-13.232,20.966
		c-9.437,3.887-19.367,2.137-25.922-5.126c-2.326-2.576-3.973-2.406-6.799-1.159c-10.978,4.841-22.514,6.99-34.539,6.224
		c2.293-1.433,2.794-3.533,2.768-6.141c-0.113-11.079-0.054-22.161-0.042-33.241c0.002-1.64-0.128-3.296,0.35-4.9
		c1.225-2.182,3.507-2.017,5.487-2.288c14.811-2.033,26.448-15.501,25.99-31.532c-0.438-15.319-13.18-28.557-28.341-29.442
		c-1.336-0.078-2.986,0.3-3.521-1.63c0.024-13.454-0.01-26.903,0.026-40.351C-1029.347-188.691-1029.476-190.277-1028.215-191.476z"
		/>
	<path fill="#F16022" d="M-1028.215-191.476c-0.008,13.854-0.012,27.709-0.028,41.564c-0.001,1.299,0.261,2.664-0.734,3.776
		c-0.857,1.135-2.178,0.881-3.331,1.076c-13.055,2.199-23.319,11.576-25.797,24.595c-3.143,16.507,7.04,31.011,21.557,35.517
		c2.712,0.842,5.647,0.835,8.208,2.218c0.025,14.112-0.061,28.225,0.155,42.333c0.053,3.491-2.234,2.361-3.883,2.746
		c-35.917-1.488-66.9-28.935-72.004-66.327c-5.259-38.528,18.242-74.821,56.639-85.212
		C-1041.21-190.875-1034.771-191.983-1028.215-191.476z"/>
	<path fill="#FFCD26" d="M-1071.146-231.767c6.481,5.251,13.78,6.897,21.217,7.589c11.351,1.057,18.206,9.23,20.597,19.587
		c1.959,8.487,2.618,6.825-5.873,7.6c-4.241,0.387-8.502,1.23-12.785,0.462c-12.462-2.234-20.636-10.835-22.52-23.677
		C-1071.047-223.873-1071.637-227.544-1071.146-231.767z"/>
</g>
</svg>
