<?xml version="1.0" encoding="utf-8"?>
<!-- Generator: Adobe Illustrator 17.0.0, SVG Export Plug-In . SVG Version: 6.00 Build 0)  -->
<!DOCTYPE svg PUBLIC "-//W3C//DTD SVG 1.1//EN" "http://www.w3.org/Graphics/SVG/1.1/DTD/svg11.dtd">
<svg version="1.1" id="Layer_1" xmlns="http://www.w3.org/2000/svg" xmlns:xlink="http://www.w3.org/1999/xlink" x="0px" y="0px"
	 width="266.363px" height="328px" viewBox="0 0 266.363 328" enable-background="new 0 0 266.363 328" xml:space="preserve">
<g>
	<path fill="#FFFFFF" d="M302.461,321.423c0-65.333,0.033-130.667-0.095-196c-0.007-3.395,0.629-4.115,4.081-4.111
		c107.333,0.119,214.667,0.117,322,0.004c3.394-0.004,4.114,0.628,4.111,4.08c-0.114,130.667-0.113,261.333-0.004,392
		c0.003,3.394-0.627,4.115-4.079,4.111c-107.333-0.119-214.667-0.117-322-0.004c-3.394,0.004-4.119-0.628-4.112-4.08
		C302.496,452.09,302.461,386.757,302.461,321.423z"/>
	<path fill="#FFCD25" d="M134.255,73.025c20.622-0.467,39.848,4.656,57.603,14.987c31.241,18.178,49.922,45.392,57.004,80.672
		c1.576,7.85,1.664,15.86,1.623,23.863c-0.141,27.301-0.659,54.611-0.095,81.899c0.313,15.152-10.315,27.759-20.051,31.77
		c-14.301,5.89-29.347,3.239-39.28-7.767c-3.524-3.904-6.02-3.646-10.303-1.757c-16.635,7.336-34.116,10.592-52.338,9.431
		c3.474-2.172,4.234-5.354,4.194-9.306c-0.171-16.789-0.082-33.581-0.063-50.372c0.003-2.485-0.194-4.995,0.531-7.425
		c1.857-3.307,5.315-3.056,8.314-3.467c22.444-3.081,40.078-23.49,39.384-47.782c-0.664-23.214-19.972-43.274-42.946-44.614
		c-2.025-0.118-4.525,0.454-5.336-2.47c0.036-20.388-0.015-40.767,0.039-61.146C132.54,77.245,132.344,74.842,134.255,73.025z"/>
	<path fill="#F16022" d="M134.255,73.025c-0.012,20.994-0.018,41.989-0.043,62.983c-0.002,1.968,0.395,4.037-1.113,5.722
		c-1.299,1.72-3.3,1.335-5.047,1.63c-19.783,3.332-35.336,17.542-39.092,37.27c-4.762,25.013,10.668,46.993,32.666,53.82
		c4.11,1.276,8.557,1.266,12.438,3.361c0.038,21.384-0.092,42.77,0.235,64.149c0.081,5.29-3.386,3.577-5.884,4.161
		c-54.426-2.255-101.376-43.846-109.11-100.508c-7.969-58.383,27.643-113.379,85.827-129.125
		C114.563,73.936,124.32,72.256,134.255,73.025z"/>
	<path fill="#FFCD26" d="M69.2,11.97c9.821,7.957,20.882,10.451,32.151,11.5c17.2,1.601,27.588,13.986,31.211,29.681
		c2.969,12.86,3.967,10.342-8.899,11.517c-6.426,0.587-12.883,1.864-19.374,0.7c-18.884-3.386-31.27-16.419-34.125-35.878
		C69.349,23.932,68.456,18.369,69.2,11.97z"/>
	<path fill="#FDCE2D" d="M239.499,406.707c0.947,2.558-2.263,6.881,3.14,8.302c1.03,0.271,0.687,1.742,0.01,2.566
		c-0.824,1.003-9.308,1.105-10.055,0.096c-0.594-0.801-1.08-1.99-0.032-2.647c5.86-3.679,1.824-9.137,2.461-13.723
		c0.188-1.356-1.645-2.375-2.875-2.225c-2.225,0.27-5.404,0.683-5.654,3.094c-0.446,4.289-3.645,9.275,1.875,12.855
		c1.152,0.747,1.12,2.437-0.184,2.835c-3.028,0.926-6.288,0.827-9.315,0.147c-1.346-0.302-1.967-2.088-0.138-3.459
		c2.402-1.8,3.618-12.089,1.76-14.206c-1.3-1.481-3.03-1.296-4.625-0.772c-2.315,0.76-4.669,2.231-4.272,4.811
		c0.557,3.615-2.789,8.299,2.669,10.816c0.816,0.376,0.503,1.832-0.306,2.615c-0.837,0.811-8.938,0.647-9.689-0.206
		c-1.006-1.143-0.699-2.395,0.536-2.849c4.479-1.645,2.239-5.41,2.23-8.022c-0.009-2.544,2.513-6.37-2.505-7.849
		c-1.833-0.54-1.299-2.393,0.621-3.126c0.3-0.115,0.654-0.104,0.985-0.115c4.265-0.136,8.988-0.701,12.686-0.249
		c4.836,0.591,8.916,0.901,13.703-0.387c3.487-0.938,6.764,1.405,6.963,5.873C239.567,402.71,239.499,404.541,239.499,406.707z"/>
	<path fill="#F06223" d="M71.397,416.604c1.002,3.186-2.235,7.568,3.57,8.432c0.259,0.039,0.446,1.475,0.425,2.254
		c-0.031,1.103-0.979,1.175-1.807,1.176c-2.491,0.003-4.983-0.048-7.475-0.057c-1.127-0.004-1.948-0.338-1.962-1.638
		c-0.011-0.986-0.126-2.201,1.247-2.249c2.816-0.098,1.959-2.166,1.981-3.616c0.078-5.149,0.151-10.303-0.021-15.447
		c-0.082-2.463,1.485-5.755-2.707-6.764c-0.67-0.161-0.691-1.403-0.325-2.235c0.419-0.953,1.306-0.986,2.1-0.884
		c4.174,0.536,8.235,0.37,12.441-0.395c4.874-0.886,8.897,1.628,10.909,6.041c2.105,4.617,1.88,9.509-1.57,13.604
		c-3.229,3.834-7.611,4.439-12.278,3.41C74.516,417.926,73.185,417.261,71.397,416.604z"/>
	<path fill="#FDCE30" d="M174.301,418.279c-3.274-2.387-7.071,0.434-10.965,0.273c-6.95-0.289-11.248-5.025-10.974-12.476
		c0.245-6.662,5.622-12.275,11.925-11.141c4.062,0.731,7.916,0.95,11.933,0.64c1.081-0.083,2.518-0.27,2.993,1.157
		c0.553,1.661-0.367,2.359-1.964,2.679c-1.148,0.23-1.563,1.425-1.3,2.371c1.24,4.469-2.403,9.989,2.909,13.617
		c0.319,0.218,0.368,1.334,0.114,1.799C178.055,418.884,176.385,418.216,174.301,418.279z"/>
	<path fill="#F06424" d="M144.309,407.2c0.528,2.799-1.476,6.526,2.846,8.293c0.574,0.235,0.498,1.929-0.211,2.197
		c-3.184,1.206-6.537,0.75-9.796,0.34c-1.128-0.142-1.165-2.216-0.655-2.452c5.262-2.437,2.393-7.039,2.907-10.658
		c0.338-2.378,0.691-5.405-2.986-5.667c-3.426-0.244-7.117,1.276-7.224,4.575c-0.117,3.616-3.314,8.563,2.596,11.215
		c1.242,0.557,1.351,2.806-0.953,3.186c-1.46,0.241-3.007,0.223-4.482,0.045c-1.688-0.204-3.962,1.047-4.945-1.057
		c-1.064-2.278,1.459-2.248,2.543-3.253c1.782-1.653,0.266-13.024-1.793-14.802c-0.723-0.625-1.026-1.285-0.898-2.135
		c0.186-1.232,1.216-1.784,2.188-1.484c4.847,1.498,9.466,0.018,14.228-0.537c3.723-0.434,6.168,2.198,6.595,6.061
		C144.489,403.041,144.309,405.059,144.309,407.2z"/>
	<path fill="#F06424" d="M108.972,408.321c-1.996,0-4.007-0.151-5.981,0.057c-1.149,0.121-2.943-0.913-3.372,0.949
		c-0.316,1.368,0.875,2.452,1.866,3.336c3.57,3.182,7.345,2.788,10.848,0.082c1.611-1.244,3.471-2.517,4.697-0.916
		c1.121,1.462-1.079,2.883-2.259,3.92c-4.926,4.327-13.419,3.87-17.532-0.835c-3.956-4.526-3.684-12.893,0.548-16.853
		c4.586-4.291,12.873-4.22,17.256,0.151c0.353,0.352,0.747,0.684,1.018,1.094c1.595,2.419,3.085,5.305,2.106,7.919
		c-0.978,2.609-4.097,0.602-6.21,1.085c-0.948,0.217-1.988,0.037-2.985,0.037C108.972,408.339,108.972,408.33,108.972,408.321z"/>
	<path fill="#FCCE32" d="M256.697,418.64c-2.55,0.52-5.207-2.149-8.288-0.502c-0.917,0.491-1.829-0.709-1.77-1.82
		c0.099-1.878-1.031-4.109,1.178-5.473c1.271-0.785,2.14,0.144,2.959,1.037c2.158,2.354,4.852,3.491,8.029,3.117
		c1.519-0.179,3.028-0.867,3.115-2.672c0.073-1.525-1.089-2.401-2.461-2.728c-2.09-0.497-4.24-0.747-6.328-1.251
		c-3.609-0.87-6.663-2.366-6.501-6.843c0.168-4.641,3.113-6.094,7.22-6.571c3.335-0.387,6.355,1.626,9.759,0.846
		c1.307-0.299,1.718,1.323,1.733,2.536c0.019,1.462,0.34,3.138-1.308,3.978c-1.101,0.561-2.378,0.416-3.179-0.598
		c-1.512-1.912-3.191-3.373-5.813-3.237c-1.768,0.091-3.371,0.519-3.871,2.47c-0.643,2.51,1.592,2.602,2.991,3.081
		c1.546,0.529,3.254,0.57,4.879,0.887c4.165,0.81,7.894,2.074,7.251,7.524C265.794,416.621,262.627,418.748,256.697,418.64z"/>
	<path fill="#EF6224" d="M49.524,418.612c-7.19-0.042-12.141-4.825-12.131-11.72c0.01-6.943,5.383-12.16,12.397-12.036
		c7.194,0.127,12.283,5.284,12.192,12.357C61.896,413.891,56.691,418.654,49.524,418.612z"/>
	<path fill="#FDCF33" d="M189.751,418.276c-1.16,0-2.325,0.067-3.48-0.014c-2.3-0.163-2.525-2.283-1.435-3.059
		c5.484-3.9,1.464-9.379,2.653-13.933c0.102-0.391-0.148-1.087-0.47-1.336c-1.181-0.912-3.643-1.116-2.42-3.389
		c1.068-1.985,3.564-1.365,4.938-0.861c2.809,1.03,5.165,0.333,7.715-0.482c1.088-0.347,2.7-1.344,3.105,0.889
		c0.254,1.398-0.065,2.389-1.691,3.058c-7.241,2.978-8.79,9.549-3.889,15.827c1.23,1.575,0.937,2.858-1.065,3.267
		c-1.271,0.26-2.638,0.049-3.961,0.049C189.751,418.287,189.751,418.282,189.751,418.276z"/>
	<path fill="#FFFFFF" d="M461.993,357.317c-26.474-0.914-46.109-22.252-47.186-46.131c-1.227-27.19,21.411-49.71,46.222-49.949
		c28.974-0.65,49.962,23.534,49.089,50.133c-0.713,21.725-19.196,42.508-41.191,45.15
		C466.616,356.797,464.304,357.051,461.993,357.317z"/>
	<path fill="#FAF8F3" d="M78.931,414.832c-4.265-0.066-7.568-3.719-7.45-8.243c0.108-4.181,3.513-7.773,7.466-7.878
		c3.862-0.102,7.545,4.046,7.426,8.364C86.252,411.454,82.952,414.894,78.931,414.832z"/>
	<path fill="#FDFDF9" d="M171.524,406.763c-0.024,4.758-2.722,7.841-6.943,7.932c-4.387,0.096-7.874-3.435-7.716-7.81
		c0.169-4.667,3.533-8.213,7.651-8.066C168.679,398.969,171.547,402.22,171.524,406.763z"/>
	<path fill="#FAF3EA" d="M106.97,404.502c-1.268,0-1.967,0.134-2.591-0.026c-1.549-0.397-4.163,1.3-4.467-1.334
		c-0.235-2.045,1.753-3.386,3.785-4.093c3.159-1.1,5.915-0.148,8.362,1.774c0.854,0.67,1.887,2.253,0.979,3.012
		C111.139,405.421,108.591,403.985,106.97,404.502z"/>
	<path fill="#FAF8F4" d="M57.412,406.769c-0.005,4.39-3.493,8.016-7.709,8.014c-4.381-0.002-7.698-3.473-7.676-8.031
		c0.021-4.323,3.76-8.322,7.668-8.2C53.894,398.682,57.417,402.433,57.412,406.769z"/>
</g>
<g>
</g>
<g>
</g>
<g>
</g>
<g>
</g>
<g>
</g>
<g>
</g>
</svg>
