<?xml version="1.0" encoding="utf-8"?>
<!-- Generator: Adobe Illustrator 17.0.0, SVG Export Plug-In . SVG Version: 6.00 Build 0)  -->
<!DOCTYPE svg PUBLIC "-//W3C//DTD SVG 1.1//EN" "http://www.w3.org/Graphics/SVG/1.1/DTD/svg11.dtd">
<svg version="1.1" id="Layer_1" xmlns="http://www.w3.org/2000/svg" xmlns:xlink="http://www.w3.org/1999/xlink" x="0px" y="0px"
	 width="450px" height="82px" viewBox="-537.318 170.5 450 82" enable-background="new -537.318 170.5 450 82" xml:space="preserve"
	>
<g>
	<path fill="#FFFFFF" d="M302.461,321.423c0-65.333,0.033-130.667-0.095-196c-0.007-3.395,0.629-4.115,4.081-4.111
		c107.333,0.119,214.667,0.117,322,0.004c3.394-0.004,4.114,0.628,4.111,4.08c-0.114,130.667-0.113,261.333-0.004,392
		c0.003,3.394-0.627,4.115-4.079,4.111c-107.333-0.119-214.667-0.117-322-0.004c-3.394,0.004-4.119-0.628-4.112-4.08
		C302.496,452.09,302.461,386.757,302.461,321.423z"/>
	<path fill="#FFCD25" d="M134.255,73.025c20.622-0.467,39.848,4.656,57.603,14.987c31.241,18.178,49.922,45.392,57.004,80.672
		c1.576,7.85,1.664,15.86,1.623,23.863c-0.141,27.301-0.659,54.611-0.095,81.899c0.313,15.152-10.315,27.759-20.051,31.77
		c-14.301,5.89-29.347,3.239-39.28-7.767c-3.524-3.904-6.02-3.646-10.303-1.757c-16.635,7.336-34.116,10.592-52.338,9.431
		c3.474-2.172,4.234-5.354,4.194-9.306c-0.171-16.789-0.082-33.581-0.063-50.372c0.003-2.485-0.194-4.995,0.531-7.425
		c1.857-3.307,5.315-3.056,8.314-3.467c22.444-3.081,40.078-23.49,39.384-47.782c-0.664-23.214-19.972-43.274-42.946-44.614
		c-2.025-0.118-4.525,0.454-5.336-2.47c0.036-20.388-0.015-40.767,0.039-61.146C132.54,77.245,132.344,74.842,134.255,73.025z"/>
	<path fill="#F16022" d="M134.255,73.025c-0.012,20.994-0.018,41.989-0.043,62.983c-0.002,1.968,0.395,4.037-1.113,5.722
		c-1.299,1.72-3.3,1.335-5.047,1.63c-19.783,3.332-35.336,17.542-39.092,37.27c-4.762,25.013,10.668,46.993,32.666,53.82
		c4.11,1.276,8.557,1.266,12.438,3.361c0.038,21.384-0.092,42.77,0.235,64.149c0.081,5.29-3.386,3.577-5.884,4.161
		c-54.426-2.255-101.376-43.846-109.11-100.508C11.336,147.23,46.948,92.234,105.132,76.488
		C114.563,73.936,124.32,72.256,134.255,73.025z"/>
	<path fill="#FFCD26" d="M69.2,11.97c9.821,7.957,20.882,10.451,32.151,11.5c17.2,1.601,27.588,13.986,31.211,29.681
		c2.969,12.86,3.967,10.342-8.899,11.517c-6.426,0.587-12.883,1.864-19.374,0.7c-18.884-3.386-31.27-16.419-34.125-35.878
		C69.349,23.932,68.456,18.369,69.2,11.97z"/>
	<path fill="#FDCE2D" d="M239.499,406.707c0.947,2.558-2.263,6.881,3.14,8.302c1.03,0.271,0.687,1.742,0.01,2.566
		c-0.824,1.003-9.308,1.105-10.055,0.096c-0.594-0.801-1.08-1.99-0.032-2.647c5.86-3.679,1.824-9.137,2.461-13.723
		c0.188-1.356-1.645-2.375-2.875-2.225c-2.225,0.27-5.404,0.683-5.654,3.094c-0.446,4.289-3.645,9.275,1.875,12.855
		c1.152,0.747,1.12,2.437-0.184,2.835c-3.028,0.926-6.288,0.827-9.315,0.147c-1.346-0.302-1.967-2.088-0.138-3.459
		c2.402-1.8,3.618-12.089,1.76-14.206c-1.3-1.481-3.03-1.296-4.625-0.772c-2.315,0.76-4.669,2.231-4.272,4.811
		c0.557,3.615-2.789,8.299,2.669,10.816c0.816,0.376,0.503,1.832-0.306,2.615c-0.837,0.811-8.938,0.647-9.689-0.206
		c-1.006-1.143-0.699-2.395,0.536-2.849c4.479-1.645,2.239-5.41,2.23-8.022c-0.009-2.544,2.513-6.37-2.505-7.849
		c-1.833-0.54-1.299-2.393,0.621-3.126c0.3-0.115,0.654-0.104,0.985-0.115c4.265-0.136,8.988-0.701,12.686-0.249
		c4.836,0.591,8.916,0.901,13.703-0.387c3.487-0.938,6.764,1.405,6.963,5.873C239.567,402.71,239.499,404.541,239.499,406.707z"/>
	<path fill="#F06223" d="M71.397,416.604c1.002,3.186-2.235,7.568,3.57,8.432c0.259,0.039,0.446,1.475,0.425,2.254
		c-0.031,1.103-0.979,1.175-1.807,1.176c-2.491,0.003-4.983-0.048-7.475-0.057c-1.127-0.004-1.948-0.338-1.962-1.638
		c-0.011-0.986-0.126-2.201,1.247-2.249c2.816-0.098,1.959-2.166,1.981-3.616c0.078-5.149,0.151-10.303-0.021-15.447
		c-0.082-2.463,1.485-5.755-2.707-6.764c-0.67-0.161-0.691-1.403-0.325-2.235c0.419-0.953,1.306-0.986,2.1-0.884
		c4.174,0.536,8.235,0.37,12.441-0.395c4.874-0.886,8.897,1.628,10.909,6.041c2.105,4.617,1.88,9.509-1.57,13.604
		c-3.229,3.834-7.611,4.439-12.278,3.41C74.516,417.926,73.185,417.261,71.397,416.604z"/>
	<path fill="#FDCE30" d="M174.301,418.279c-3.274-2.387-7.071,0.434-10.965,0.273c-6.95-0.289-11.248-5.025-10.974-12.476
		c0.245-6.662,5.622-12.275,11.925-11.141c4.062,0.731,7.916,0.95,11.933,0.64c1.081-0.083,2.518-0.27,2.993,1.157
		c0.553,1.661-0.367,2.359-1.964,2.679c-1.148,0.23-1.563,1.425-1.3,2.371c1.24,4.469-2.403,9.989,2.909,13.617
		c0.319,0.218,0.368,1.334,0.114,1.799C178.055,418.884,176.385,418.216,174.301,418.279z"/>
	<path fill="#F06424" d="M144.309,407.2c0.528,2.799-1.476,6.526,2.846,8.293c0.574,0.235,0.498,1.929-0.211,2.197
		c-3.184,1.206-6.537,0.75-9.796,0.34c-1.128-0.142-1.165-2.216-0.655-2.452c5.262-2.437,2.393-7.039,2.907-10.658
		c0.338-2.378,0.691-5.405-2.986-5.667c-3.426-0.244-7.117,1.276-7.224,4.575c-0.117,3.616-3.314,8.563,2.596,11.215
		c1.242,0.557,1.351,2.806-0.953,3.186c-1.46,0.241-3.007,0.223-4.482,0.045c-1.688-0.204-3.962,1.047-4.945-1.057
		c-1.064-2.278,1.459-2.248,2.543-3.253c1.782-1.653,0.266-13.024-1.793-14.802c-0.723-0.625-1.026-1.285-0.898-2.135
		c0.186-1.232,1.216-1.784,2.188-1.484c4.847,1.498,9.466,0.018,14.228-0.537c3.723-0.434,6.168,2.198,6.595,6.061
		C144.489,403.041,144.309,405.059,144.309,407.2z"/>
	<path fill="#F06424" d="M108.972,408.321c-1.996,0-4.007-0.151-5.981,0.057c-1.149,0.121-2.943-0.913-3.372,0.949
		c-0.316,1.368,0.875,2.452,1.866,3.336c3.57,3.182,7.345,2.788,10.848,0.082c1.611-1.244,3.471-2.517,4.697-0.916
		c1.121,1.462-1.079,2.883-2.259,3.92c-4.926,4.327-13.419,3.87-17.532-0.835c-3.956-4.526-3.684-12.893,0.548-16.853
		c4.586-4.291,12.873-4.22,17.256,0.151c0.353,0.352,0.747,0.684,1.018,1.094c1.595,2.419,3.085,5.305,2.106,7.919
		c-0.978,2.609-4.097,0.602-6.21,1.085c-0.948,0.217-1.988,0.037-2.985,0.037C108.972,408.339,108.972,408.33,108.972,408.321z"/>
	<path fill="#FCCE32" d="M256.697,418.64c-2.55,0.52-5.207-2.149-8.288-0.502c-0.917,0.491-1.829-0.709-1.77-1.82
		c0.099-1.878-1.031-4.109,1.178-5.473c1.271-0.785,2.14,0.144,2.959,1.037c2.158,2.354,4.852,3.491,8.029,3.117
		c1.519-0.179,3.028-0.867,3.115-2.672c0.073-1.525-1.089-2.401-2.461-2.728c-2.09-0.497-4.24-0.747-6.328-1.251
		c-3.609-0.87-6.663-2.366-6.501-6.843c0.168-4.641,3.113-6.094,7.22-6.571c3.335-0.387,6.355,1.626,9.759,0.846
		c1.307-0.299,1.718,1.323,1.733,2.536c0.019,1.462,0.34,3.138-1.308,3.978c-1.101,0.561-2.378,0.416-3.179-0.598
		c-1.512-1.912-3.191-3.373-5.813-3.237c-1.768,0.091-3.371,0.519-3.871,2.47c-0.643,2.51,1.592,2.602,2.991,3.081
		c1.546,0.529,3.254,0.57,4.879,0.887c4.165,0.81,7.894,2.074,7.251,7.524C265.794,416.621,262.627,418.748,256.697,418.64z"/>
	<path fill="#EF6224" d="M49.524,418.612c-7.19-0.042-12.141-4.825-12.131-11.72c0.01-6.943,5.383-12.16,12.397-12.036
		c7.194,0.127,12.283,5.284,12.192,12.357C61.896,413.891,56.691,418.654,49.524,418.612z"/>
	<path fill="#FDCF33" d="M189.751,418.276c-1.16,0-2.325,0.067-3.48-0.014c-2.3-0.163-2.525-2.283-1.435-3.059
		c5.484-3.9,1.464-9.379,2.653-13.933c0.102-0.391-0.148-1.087-0.47-1.336c-1.181-0.912-3.643-1.116-2.42-3.389
		c1.068-1.985,3.564-1.365,4.938-0.861c2.809,1.03,5.165,0.333,7.715-0.482c1.088-0.347,2.7-1.344,3.105,0.889
		c0.254,1.398-0.065,2.389-1.691,3.058c-7.241,2.978-8.79,9.549-3.889,15.827c1.23,1.575,0.937,2.858-1.065,3.267
		c-1.271,0.26-2.638,0.049-3.961,0.049C189.751,418.287,189.751,418.282,189.751,418.276z"/>
	<path fill="#FFFFFF" d="M461.993,357.317c-26.474-0.914-46.109-22.252-47.186-46.131c-1.227-27.19,21.411-49.71,46.222-49.949
		c28.974-0.65,49.962,23.534,49.089,50.133c-0.713,21.725-19.196,42.508-41.191,45.15
		C466.616,356.797,464.304,357.051,461.993,357.317z"/>
	<path fill="#FAF8F3" d="M78.931,414.832c-4.265-0.066-7.568-3.719-7.45-8.243c0.108-4.181,3.513-7.773,7.466-7.878
		c3.862-0.102,7.545,4.046,7.426,8.364C86.252,411.454,82.952,414.894,78.931,414.832z"/>
	<path fill="#FDFDF9" d="M171.524,406.763c-0.024,4.758-2.722,7.841-6.943,7.932c-4.387,0.096-7.874-3.435-7.716-7.81
		c0.169-4.667,3.533-8.213,7.651-8.066C168.679,398.969,171.547,402.22,171.524,406.763z"/>
	<path fill="#FAF3EA" d="M106.97,404.502c-1.268,0-1.967,0.134-2.591-0.026c-1.549-0.397-4.163,1.3-4.467-1.334
		c-0.235-2.045,1.753-3.386,3.785-4.093c3.159-1.1,5.915-0.148,8.362,1.774c0.854,0.67,1.887,2.253,0.979,3.012
		C111.139,405.421,108.591,403.985,106.97,404.502z"/>
	<path fill="#FAF8F4" d="M57.412,406.769c-0.005,4.39-3.493,8.016-7.709,8.014c-4.381-0.002-7.698-3.473-7.676-8.031
		c0.021-4.323,3.76-8.322,7.668-8.2C53.894,398.682,57.417,402.433,57.412,406.769z"/>
</g>
<g>
	<path fill="#F16022" d="M-516.832,206.952c0.027-3.158,0.575-6.032,1.643-8.625c1.067-2.593,2.557-4.819,4.47-6.681
		c1.913-1.861,4.186-3.292,6.82-4.294c2.634-1.001,5.531-1.502,8.692-1.502c3.188,0,6.106,0.501,8.754,1.502
		c2.647,1.002,4.914,2.42,6.8,4.255c1.885,1.836,3.354,4.05,4.408,6.643c1.053,2.593,1.58,5.468,1.58,8.625
		c0,3.106-0.527,5.962-1.58,8.568c-1.054,2.605-2.523,4.845-4.408,6.719c-1.886,1.873-4.152,3.331-6.8,4.37
		c-2.648,1.04-5.566,1.559-8.754,1.559c-3.244,0-6.183-0.515-8.816-1.54c-2.634-1.027-4.894-2.471-6.779-4.332
		c-1.886-1.862-3.355-4.088-4.408-6.682C-516.264,212.947-516.805,210.085-516.832,206.952z M-508.64,206.952
		c0,2.285,0.353,4.351,1.061,6.2c0.707,1.848,1.677,3.421,2.911,4.717c1.233,1.297,2.661,2.298,4.284,3.003
		c1.622,0.707,3.348,1.06,5.177,1.06c1.913,0,3.694-0.347,5.344-1.04c1.649-0.694,3.084-1.689,4.304-2.984
		c1.22-1.297,2.176-2.869,2.869-4.717c0.693-1.849,1.04-3.928,1.04-6.238c0-2.412-0.347-4.556-1.04-6.431
		c-0.693-1.873-1.642-3.439-2.848-4.697s-2.641-2.208-4.304-2.85c-1.664-0.642-3.452-0.963-5.365-0.963
		c-1.83,0-3.556,0.321-5.177,0.963c-1.622,0.642-3.05,1.592-4.284,2.85c-1.234,1.258-2.204,2.824-2.911,4.697
		C-508.286,202.396-508.64,204.54-508.64,206.952z"/>
	<path fill="#F16022" d="M-467.012,187.006h13.724v3.312c1.83-1.309,3.826-2.349,5.989-3.119c2.163-0.771,4.394-1.155,6.695-1.155
		c2.828,0,5.42,0.487,7.777,1.463c2.356,0.976,4.387,2.349,6.092,4.12c1.705,1.77,3.028,3.896,3.971,6.372
		c0.942,2.478,1.414,5.218,1.414,8.221c0,3.21-0.527,6.136-1.58,8.78c-1.054,2.644-2.516,4.909-4.387,6.796
		c-1.871,1.887-4.096,3.357-6.675,4.409s-5.406,1.578-8.483,1.578c-2.19,0-4.138-0.211-5.843-0.635
		c-1.705-0.423-3.334-0.968-4.886-1.636v12.899h6.737v6.623h-20.461v-6.623h5.905v-44.782h-5.989V187.006z M-442.642,192.359
		c-1.996,0-3.916,0.373-5.76,1.117c-1.844,0.745-3.445,1.771-4.804,3.08v21.602c0.915,0.873,2.225,1.656,3.93,2.349
		c1.705,0.693,3.833,1.04,6.384,1.04c1.774,0,3.479-0.32,5.115-0.963c1.635-0.642,3.078-1.598,4.325-2.869
		c1.247-1.271,2.246-2.843,2.994-4.717c0.749-1.873,1.122-4.043,1.122-6.507c0-2.259-0.353-4.261-1.06-6.006
		c-0.707-1.746-1.664-3.222-2.87-4.428c-1.206-1.207-2.613-2.124-4.221-2.753C-439.093,192.674-440.812,192.359-442.642,192.359z"/>
	<path fill="#F16022" d="M-406.045,207.877c0,1.13,0.09,2.163,0.27,3.1c0.18,0.938,0.437,1.829,0.77,2.677
		c1.025,2.566,2.668,4.498,4.928,5.794c2.259,1.297,4.817,1.945,7.672,1.945c2.246,0,4.429-0.289,6.55-0.866
		c2.121-0.578,4.346-1.483,6.675-2.714l3.119,4.89c-2.828,1.797-5.67,3.132-8.525,4.005c-2.856,0.872-5.823,1.308-8.9,1.308
		c-2.911,0-5.608-0.449-8.089-1.347c-2.481-0.898-4.616-2.234-6.404-4.005c-1.788-1.77-3.189-3.979-4.2-6.623
		c-1.012-2.643-1.518-5.724-1.518-9.242c0-2.849,0.429-5.538,1.289-8.067c0.859-2.528,2.142-4.736,3.846-6.623
		c1.705-1.887,3.819-3.382,6.342-4.486c2.523-1.104,5.462-1.656,8.816-1.656c3.244,0,5.954,0.456,8.131,1.367
		c2.176,0.911,3.95,2.118,5.323,3.62c1.372,1.502,2.412,3.215,3.119,5.14c0.707,1.926,1.199,3.889,1.476,5.892
		c0.138,0.976,0.228,1.964,0.27,2.964c0.042,1.002,0.062,1.977,0.062,2.927H-406.045z M-393.943,191.974
		c-1.802,0-3.376,0.237-4.72,0.712c-1.345,0.476-2.489,1.155-3.431,2.041c-0.943,0.885-1.698,1.97-2.267,3.253
		c-0.569,1.284-0.991,2.722-1.268,4.313h22.332c-0.111-1.488-0.368-2.861-0.769-4.12c-0.402-1.257-1.019-2.348-1.851-3.272
		c-0.832-0.925-1.9-1.643-3.202-2.157C-390.423,192.231-392.031,191.974-393.943,191.974z"/>
	<path fill="#F16022" d="M-336.138,220.276h6.072v-18.213c0-3.055-0.839-5.371-2.516-6.95c-1.678-1.578-4.083-2.368-7.216-2.368
		c-1.802,0-3.618,0.398-5.448,1.194c-1.83,0.796-3.563,1.784-5.198,2.964v23.373h6.071v6.623H-364.5v-6.623h5.989v-26.646h-5.989
		v-6.623h13.723v4.698h0.083c0.915-0.745,1.892-1.45,2.932-2.118c1.04-0.667,2.127-1.244,3.265-1.733
		c1.136-0.487,2.322-0.873,3.556-1.155c1.233-0.282,2.53-0.423,3.888-0.423c2.301,0,4.38,0.295,6.238,0.885
		c1.857,0.591,3.437,1.489,4.741,2.696c1.303,1.207,2.308,2.753,3.015,4.639c0.707,1.887,1.061,4.114,1.061,6.682v19.099h5.989
		v6.623h-20.128V220.276z"/>
	<path fill="#FFCD25" d="M-282.366,223.202c-1.636,1.411-3.445,2.567-5.427,3.465c-1.983,0.898-4.235,1.347-6.758,1.347
		c-2.107,0-4.041-0.308-5.801-0.924c-1.761-0.615-3.279-1.456-4.554-2.522c-1.276-1.065-2.267-2.303-2.974-3.715
		c-0.707-1.411-1.06-2.913-1.06-4.505c0-1.695,0.27-3.196,0.811-4.506c0.541-1.309,1.261-2.445,2.163-3.407
		c0.9-0.963,1.955-1.771,3.161-2.426c1.206-0.655,2.467-1.18,3.784-1.579c1.316-0.397,2.661-0.679,4.034-0.846
		s2.682-0.251,3.93-0.251c1.996,0,3.673,0.058,5.032,0.173c1.358,0.116,2.592,0.276,3.701,0.482l0.042-3.273
		c0-1.412-0.223-2.638-0.666-3.677c-0.444-1.04-1.067-1.9-1.871-2.58c-0.804-0.68-1.767-1.188-2.89-1.522
		c-1.123-0.333-2.377-0.5-3.763-0.5c-1.304,0-2.551,0.083-3.743,0.25c-1.192,0.167-2.308,0.385-3.348,0.654
		c-1.04,0.27-1.996,0.578-2.869,0.924c-0.874,0.348-1.616,0.713-2.225,1.098l-2.537-4.968c1.025-0.616,2.148-1.187,3.369-1.714
		c1.22-0.525,2.502-0.974,3.847-1.347c1.344-0.372,2.717-0.667,4.117-0.885c1.4-0.218,2.78-0.328,4.138-0.328
		c2.495,0,4.741,0.276,6.737,0.827c1.996,0.552,3.687,1.406,5.074,2.561c1.386,1.155,2.453,2.625,3.202,4.408
		c0.748,1.785,1.122,3.922,1.122,6.412l-0.041,19.946h4.783v6.623h-12.518V223.202z M-292.846,222.008
		c1.025,0,2.051-0.116,3.077-0.347c1.025-0.231,1.996-0.545,2.911-0.943c0.915-0.398,1.76-0.86,2.537-1.387
		c0.775-0.525,1.428-1.071,1.954-1.636l0.042-9.011h-8.982c-1.497,0-2.863,0.154-4.096,0.462c-1.234,0.309-2.302,0.758-3.202,1.348
		c-0.901,0.59-1.601,1.322-2.1,2.195c-0.499,0.873-0.749,1.874-0.749,3.003c0,1.053,0.208,1.971,0.624,2.753
		c0.416,0.783,1.004,1.438,1.767,1.964c0.762,0.527,1.67,0.924,2.724,1.194S-294.122,222.008-292.846,222.008z"/>
	<path fill="#FFCD25" d="M-230.133,195.44h-7.902v-2.465c-0.915,0-1.851,0.161-2.807,0.481c-0.957,0.321-1.851,0.809-2.682,1.464
		c-0.832,0.654-1.56,1.489-2.184,2.502c-0.624,1.014-1.075,2.215-1.351,3.601v19.253h7.32v6.623h-21.376v-6.623h5.947l0.042-26.646
		h-5.989v-6.623h13.765v5.507c0.499-0.821,1.06-1.585,1.684-2.291c0.624-0.706,1.317-1.322,2.08-1.848
		c0.762-0.526,1.608-0.937,2.537-1.232c0.928-0.295,1.934-0.443,3.015-0.443c1.441,0,2.8,0,4.075,0c1.275,0,2.551,0.026,3.826,0.077
		V195.44z"/>
	<path fill="#FFCD25" d="M-221.192,187.006h13.723v4.659h0.083c0.942-0.743,1.934-1.444,2.973-2.098
		c1.04-0.655,2.127-1.225,3.265-1.714c1.137-0.487,2.322-0.873,3.556-1.155c1.233-0.282,2.516-0.423,3.847-0.423
		c3.105,0,5.781,0.532,8.026,1.597c2.246,1.066,3.978,2.728,5.198,4.987c1.053-0.873,2.163-1.714,3.327-2.522
		c1.164-0.809,2.377-1.508,3.638-2.098c1.261-0.59,2.585-1.065,3.972-1.425c1.386-0.359,2.828-0.539,4.325-0.539
		c2.329,0,4.422,0.295,6.28,0.885c1.857,0.591,3.437,1.489,4.741,2.696c1.303,1.207,2.294,2.753,2.974,4.639
		c0.679,1.887,1.019,4.114,1.019,6.682v19.099h5.989v6.623h-20.128v-6.623h6.071v-18.213c0-3.055-0.832-5.371-2.495-6.95
		c-1.663-1.578-4.062-2.368-7.195-2.368c-1.858,0-3.757,0.411-5.697,1.232c-1.941,0.822-3.604,1.862-4.99,3.12v23.18h5.947v6.623
		h-20.087v-6.623h6.072v-18.213c0-3.055-0.839-5.371-2.516-6.95c-1.678-1.578-4.083-2.368-7.216-2.368
		c-1.802,0-3.618,0.398-5.448,1.194c-1.83,0.796-3.563,1.784-5.198,2.964v23.373h6.071v6.623h-20.128v-6.623h5.989v-26.646h-5.989
		V187.006z"/>
	<path fill="#FFCD25" d="M-111.882,194.959c-0.54-0.757-1.241-1.373-2.1-1.849c-0.859-0.475-1.816-0.821-2.869-1.04
		c-1.054-0.217-2.079-0.327-3.077-0.327c-1.109,0-2.128,0.116-3.057,0.347c-0.929,0.231-1.726,0.565-2.391,1.001
		c-0.666,0.437-1.186,0.969-1.56,1.598c-0.374,0.629-0.561,1.328-0.561,2.098c0,1.336,0.437,2.394,1.31,3.178
		c0.873,0.783,2.335,1.508,4.387,2.175l8.276,2.696c3.548,1.105,6.14,2.606,7.777,4.506c1.635,1.9,2.453,4.172,2.453,6.815
		c0,1.771-0.382,3.395-1.144,4.871c-0.763,1.476-1.844,2.733-3.244,3.774c-1.4,1.04-3.085,1.848-5.052,2.426
		c-1.969,0.578-4.159,0.866-6.571,0.866c-3.355,0-6.086-0.501-8.193-1.502c-2.107-1.002-3.729-2.324-4.865-3.966h-4.325v-6.624
		h8.608c0,1.105,0.256,2.048,0.769,2.831c0.513,0.783,1.192,1.419,2.038,1.906c0.845,0.488,1.801,0.847,2.869,1.078
		c1.067,0.231,2.155,0.347,3.265,0.347c1.081,0,2.121-0.122,3.119-0.366c0.998-0.244,1.878-0.603,2.641-1.077
		c0.762-0.476,1.365-1.046,1.809-1.714c0.443-0.668,0.665-1.425,0.665-2.272c0-1.283-0.451-2.374-1.351-3.273
		c-0.901-0.898-2.433-1.706-4.596-2.426l-8.234-2.849c-3.355-1.104-5.843-2.51-7.465-4.217c-1.622-1.706-2.432-3.843-2.432-6.411
		c0-1.695,0.339-3.26,1.019-4.698c0.679-1.438,1.663-2.677,2.953-3.716c1.289-1.04,2.862-1.853,4.72-2.445
		c1.857-0.59,3.978-0.886,6.363-0.886c3.077,0,5.656,0.399,7.735,1.194c2.08,0.796,3.951,2.157,5.614,4.082h4.034v6.623h-8.525
		C-111.071,196.633-111.341,195.716-111.882,194.959z"/>
</g>
</svg>
